<svg width="121" height="104" viewBox="0 0 121 104" fill="none" xmlns="http://www.w3.org/2000/svg">
<path fill-rule="evenodd" clip-rule="evenodd" d="M7.68268 64.1337C8.25057 63.5377 7.92185 63.7489 8.11566 64.549C8.42474 63.734 8.15307 64.4094 8.29288 63.5491C9.49856 61.9269 11.3053 63.3088 12.1191 63.8262C12.2362 63.5583 12.316 63.43 12.3908 63.1508C12.4981 62.581 12.6054 62.0113 12.755 61.4528C12.2208 59.2149 9.87567 59.3346 8.55897 58.8322C8.91036 58.0286 9.22435 57.3646 9.61806 56.5723C9.22249 56.0174 8.51293 56.1265 8.46876 54.768C9.20777 55.5645 12.6377 51.3962 14.4702 50.9894C14.7646 49.7216 14.5303 50.2573 14.9436 50.0688C14.6112 47.5857 12.6408 50.1999 11.448 50.9277C11.8791 49.9958 12.3102 49.064 12.7787 47.9924C12.515 47.6225 12.2887 47.113 12.025 46.7431C12.4089 45.6489 12.7505 44.5434 13.1344 43.4492C12.6217 43.1622 12.109 42.8752 11.6012 42.7391C11.554 42.5768 11.5491 42.4259 11.4644 42.4032C11.9556 40.7393 11.9182 40.8789 12.0905 39.728C12.1279 39.5884 12.1653 39.4488 12.1653 39.4488C12.3444 39.796 12.5235 40.1433 12.7026 40.4905C12.7026 40.4905 12.6603 40.4792 12.6977 40.3396C12.7823 40.3622 12.8246 40.3736 12.9093 40.3963C12.8295 40.5245 12.7872 40.5132 12.7872 40.5132C13.847 42.1438 15.2158 42.9595 17.2421 43.3528C17.2795 43.2132 17.3169 43.0736 17.3169 43.0736C16.1222 42.4542 14.9325 41.9858 13.7378 41.3664C13.6906 41.2041 13.6857 41.0532 13.601 41.0305C13.7409 40.1702 13.801 39.4381 13.9408 38.5778C14.6583 37.4234 15.55 36.4653 16.2252 35.2995C15.9339 35.3711 15.6002 35.4313 15.3463 35.3633C15.8149 34.2918 16.0964 33.9183 16.5894 33.6016C16.866 33.0772 17.1426 32.5527 17.4615 32.0397C17.1653 31.9603 16.869 31.8809 16.5305 31.7902C18.626 27.8628 28.3281 32.1084 29.5896 33.4938C29.7491 33.2373 29.9882 32.8525 30.1477 32.5959C30.1133 31.5393 29.8692 31.7732 30.1912 30.0639C26.5048 28.9265 22.8184 27.7891 19.0945 26.7913C19.1221 26.3498 19.192 25.9196 19.257 25.3385C19.6182 24.8368 19.9795 24.335 20.2984 23.822C21.4666 22.3394 25.3567 24.5788 26.5789 24.7567C26.3882 22.7604 25.0586 23.1523 24.411 23.8765C24.5281 23.6087 24.6826 23.2012 24.7575 22.922C23.1709 24.4421 21.2728 21.5394 19.7887 22.3387C19.9058 22.0709 20.0604 21.6634 20.1352 21.3842C23.8946 20.8952 26.9039 21.8512 30.5805 22.6867C31.3422 22.8908 33.3654 24.4803 33.3654 24.4803C33.8634 24.3145 34.4589 23.277 35.1163 22.8546C36.7923 21.5081 42.0108 25.899 42.9546 25.2541C46.7348 22.8255 49.8858 24.2684 52.5192 25.2733C55.7923 26.5992 59.4443 26.6799 62.9467 27.3192C64.2536 27.5197 65.4078 29.4749 66.5357 29.3282C68.4577 29.0951 71.0843 28.6018 72.333 30.8816C72.7267 30.0893 72.4875 30.4741 72.3084 30.1269C73.4816 28.7953 75.6336 31.766 77.2269 31.744C81.3021 31.9382 84.5593 35.3547 87.4258 38.3672C89.0534 39.4019 90.7234 40.4478 92.351 41.4825C92.5528 41.2373 92.7919 40.8525 93.036 40.6186C92.7281 38.8902 91.3544 37.9236 90.4136 37.3722C90.9245 36.3121 90.5258 36.9534 90.9116 37.2064C91.1035 36.6593 91.2955 36.1122 91.4451 35.5538C91.4825 35.4142 91.5199 35.2746 91.5199 35.2746C90.96 34.8253 90.3627 34.5156 89.7604 34.055C91.1777 32.4895 92.3957 36.407 93.3739 36.8188C95.9699 37.9632 97.5019 41.2167 100.887 42.1238C100.925 41.9842 100.962 41.8446 100.962 41.8446C98.1771 40.051 96.1373 36.6614 93.7608 34.5283C90.0431 31.1381 84.0765 29.5394 79.6542 26.4092C77.9192 25.9443 76.1842 25.4794 74.4916 25.0259C72.2519 23.2287 69.3124 21.8426 66.3424 22.0942C66.3749 21.8036 66.4448 21.3734 66.5196 21.0942C67.9693 19.2382 70.1962 21.9297 71.2768 21.6208C75.7819 23.4264 80.3294 25.2434 84.9191 27.0718C88.0524 29.258 91.1433 31.4329 94.314 33.4795C95.9288 35.4085 97.5809 37.1979 99.238 39.1382C103.079 39.8681 107.48 41.0473 110.197 44.6183C110.109 45.7918 110.286 44.7919 109.823 46.0144C110.679 46.543 110.243 47.324 111.261 46.3999C110.99 47.0752 111.266 46.5508 110.99 47.0752C111.174 47.5734 111.358 48.0716 111.547 48.7208C111.509 48.8604 111.472 49 111.472 49C110.342 47.7995 109.877 47.6748 108.765 45.7309C108.705 46.463 108.727 45.8705 108.789 46.4856C108.71 46.6139 100.772 43.7389 100.108 42.6631C99.9747 45.0215 101.866 46.4261 103.139 45.5701C104.037 46.1101 103.31 46.9626 104.076 47.3176C103.879 47.7138 103.725 48.1212 103.491 48.657C102.531 51.3924 101.177 51.0296 99.8914 52.78C100.619 55.8181 103.412 52.6758 104.546 54.0273C104.663 53.7594 104.743 53.6311 104.818 53.3519C104.728 53.1783 104.639 53.0047 104.469 52.9593C104.385 52.9366 104.343 52.9253 104.258 52.9026C104.295 52.763 104.333 52.6234 104.333 52.6234C104.549 52.831 104.723 53.0273 104.977 53.0954C104.912 53.6765 105.034 53.5595 104.79 53.7934C104.974 54.2916 109.494 56.5501 109.494 56.5501C109.392 57.2708 109.247 57.9802 109.182 58.5613C108.716 58.4366 108.891 58.6329 108.664 58.1233C108.417 59.5534 108.572 59.1459 107.968 61.2287C108.222 61.2967 108.434 61.3534 108.688 61.4215C108.647 62.7573 108.807 62.5008 108.273 64.1534C108.766 63.8366 109.259 63.5198 109.747 63.0521C109.63 63.32 109.476 63.7275 109.401 64.0067C109.899 63.8409 110.392 63.5241 110.89 63.3583C110.853 63.4979 110.815 63.6375 110.815 63.6375C108.929 66.2744 107.761 67.7569 105.737 68.7108C105.383 68.1673 105.177 68.2615 104.559 69.8915C105.184 69.7596 105.771 69.7674 106.354 69.6243C106.359 69.7752 106.364 69.9262 106.364 69.9262C105.309 72.3371 104.263 73.7027 103.207 74.7664C102.665 73.5737 96.599 71.4994 95.3283 73.7027C95.6994 73.5028 96.1078 73.1634 96.5211 72.9749C96.5635 72.9862 96.6058 72.9975 96.6058 72.9975C96.0299 74.6388 95.7484 75.0123 95.1757 75.4573C95.3695 76.2574 95.4817 75.8386 96.1912 75.7295C95.6203 77.5217 95.4983 77.6386 94.9451 78.6874C96.1054 78.2502 97.1554 79.5789 98.8737 78.2438C99.0479 78.4401 99.2221 78.6364 99.3913 78.6818C98.6315 79.8248 98.7388 79.2551 98.3844 81.2549C98.1109 80.5831 98.2998 81.2322 98.35 80.1983C97.9937 80.851 97.6374 81.5037 97.3185 82.0167C97.1205 84.9563 102.69 84.653 103.995 83.5063C104.042 83.6686 104.131 83.8422 104.216 83.8649C104.019 84.2611 103.78 84.6459 103.546 85.1816C103.894 85.5742 104.27 85.5253 104.646 85.4764C104.693 85.6387 104.698 85.7897 104.783 85.8123C104.319 87.0348 103.898 88.2686 103.434 89.491C103.392 89.4797 102.86 88.5889 102.098 88.3848C102.417 87.8717 102.501 87.8944 102.895 87.1021C101.994 87.7583 100.755 89.671 99.9404 91.6971C100.269 91.4859 100.678 91.1465 101.006 90.9353C100.969 91.0749 100.931 91.2145 100.931 91.2145C100.336 92.252 99.6786 92.6744 99.096 92.8175C99.2554 92.561 99.3351 92.4327 99.4946 92.1762C98.785 92.2853 98.0381 92.534 97.2862 92.6318C97.239 92.4696 97.1494 92.2959 97.0648 92.2733C98.0834 91.3492 99.1364 91.4817 99.3578 91.8403C99.5173 91.5837 99.6718 91.1762 99.8313 90.9197C99.8687 90.7801 99.9061 90.6405 99.9061 90.6405C98.9475 90.8325 97.927 90.4095 96.8434 91.9147C96.8434 91.9147 96.8937 90.8807 96.6821 90.824C95.5071 90.8084 94.3271 90.6419 93.1521 90.6263C92.5793 91.0714 92.0832 92.5844 91.3411 92.9841C92.5248 95.8449 98.3883 94.2738 100.017 92.7651C100.022 92.916 100.027 93.067 100.027 93.067C99.3891 94.0931 98.8016 94.0853 98.1638 95.1115C98.8311 94.991 99.4934 94.7196 100.161 94.5991C99.9362 95.4367 99.7492 96.1348 99.5247 96.9724C97.645 97.2169 96.2946 99.5484 94.5646 99.2345C94.9356 99.0346 95.344 98.6952 95.7574 98.5067C95.842 98.5294 95.8843 98.5407 95.969 98.5634C95.1907 96.5593 92.9093 98.6413 92.2372 98.6109C92.3592 98.4939 92.5236 98.3883 92.6082 98.411C92.3071 98.1807 92.006 97.9504 91.6674 97.8597C91.7049 97.7201 91.7423 97.5805 91.7423 97.5805C93.3355 97.5585 94.9288 97.5365 96.6018 97.3863C95.5863 97.1142 94.5707 96.842 93.5551 96.5699C90.9315 95.8669 88.796 94.6962 86.013 94.2497C87.0127 96.6124 91.0517 94.4028 91.5828 97.837C90.2042 96.7194 89.0763 96.8661 87.3432 97.7484C87.3206 98.3409 87.2979 98.9333 87.3175 99.5371C86.9318 99.2841 85.1907 101.212 85.1269 99.2494C85.7941 99.1289 86.3817 99.1367 87.0489 99.0162C87.0863 98.8766 87.1237 98.737 87.1237 98.737C87.0145 97.9596 85.9989 97.6875 85.566 97.2722C85.4961 97.7024 85.4262 98.1325 85.2765 98.691C84.2217 97.2113 83.1037 97.6599 81.9434 98.0971C81.8716 97.1801 81.8372 96.1235 81.7232 95.1951C81.7606 95.0555 81.798 94.9159 81.798 94.9159C82.2034 95.7727 82.2653 96.3878 82.7878 96.9767C82.9001 96.5579 83.0123 96.1391 83.1619 95.5806C83.9561 95.4942 84.7129 95.5473 85.4648 95.4495C85.5868 95.3326 85.6665 95.2043 85.7511 95.227C85.2642 93.1513 82.6946 94.1087 81.2313 92.9685C78.6009 90.7674 75.5817 89.5095 73.5064 87.6067C72.8766 87.5876 72.2044 87.5571 71.612 87.3984C70.0947 84.5978 67.346 85.2079 65.3228 83.6184C53.0271 73.1415 31.768 75.9741 19.9176 71.4521C20.0495 71.6371 20.1813 71.822 20.3506 71.8674C20.3181 72.1579 20.323 72.3089 20.2482 72.5881C19.8998 72.1955 19.5466 71.6519 19.1982 71.2593C19.1707 71.7008 19.1854 72.1537 19.1204 72.7348C18.3164 72.5194 17.7111 73.255 17.3106 72.5491C17.2112 72.0736 17.1119 71.5981 17.0923 70.9943C16.2085 70.9071 15.797 72.4428 14.6122 72.1253C14.63 71.382 14.6477 70.6386 14.6281 70.0348C14.3791 70.1177 14.1301 70.2006 13.9609 70.1553C13.8762 70.1326 13.8339 70.1212 13.7493 70.0986C13.886 70.4345 13.9854 70.91 14.0799 71.2346C14.0897 71.5364 14.0946 71.6874 14.1044 71.9893C11.9365 71.1091 9.73111 70.3686 7.60549 69.4998C7.80235 69.1036 8.04152 68.7188 8.27578 68.1831C8.19115 68.1604 8.14883 68.149 8.0642 68.1264C7.43555 65.5638 4.66605 68.1136 3.2972 67.2979C3.26471 67.5885 3.26961 67.7394 3.1948 68.0186C3.10526 67.845 3.01572 67.6714 2.84645 67.626C2.88386 67.4864 2.92127 67.3468 2.92127 67.3468C3.0059 67.3695 3.09053 67.3922 3.17517 67.4149C2.95868 67.2072 2.74219 66.9996 2.60051 66.5127C2.5907 66.2108 2.50116 66.0372 2.49134 65.7353C3.69701 64.1132 7.07434 66.0656 7.68268 64.1337Z" fill="white"/>
<path d="M65.665 69.52L52.0556 54.9998L65.665 40.48" stroke="#292D32" stroke-width="3" stroke-miterlimit="10" stroke-linecap="square"/>
</svg>
