<svg width="254" height="197" viewBox="0 0 254 197" fill="none" xmlns="http://www.w3.org/2000/svg">
<g clip-path="url(#clip0_13_17926)">
<path fill-rule="evenodd" clip-rule="evenodd" d="M249.889 127.198C248.555 125.806 249.328 126.299 248.869 128.171C248.145 126.266 248.781 127.845 248.456 125.833C245.625 122.042 241.37 125.281 239.454 126.495C239.179 125.868 238.992 125.569 238.817 124.916C238.567 123.583 238.317 122.25 237.967 120.944C239.232 115.706 244.748 115.978 247.847 114.798C247.023 112.919 246.287 111.366 245.364 109.514C246.296 108.214 247.965 108.467 248.074 105.289C246.333 107.155 238.279 97.4148 233.97 96.4698C233.283 93.5047 233.832 94.7573 232.86 94.3178C233.651 88.5068 238.277 94.6161 241.08 96.3145C240.069 94.1358 239.058 91.9571 237.96 89.4519C238.582 88.5854 239.116 87.3924 239.738 86.526C238.839 83.9674 238.039 81.3821 237.14 78.8235C238.347 78.1501 239.554 77.4768 240.749 77.1566C240.861 76.7767 240.873 76.4235 241.072 76.3702C239.923 72.4789 240.011 72.8054 239.609 70.1134C239.522 69.7869 239.434 69.4604 239.434 69.4604C239.012 70.2735 238.589 71.0866 238.167 71.8997C238.167 71.8997 238.266 71.873 238.179 71.5465C237.98 71.5999 237.88 71.6265 237.681 71.6799C237.868 71.9797 237.968 71.953 237.968 71.953C235.469 75.772 232.246 77.6854 227.478 78.613C227.391 78.2865 227.303 77.96 227.303 77.96C230.116 76.5066 232.916 75.4063 235.728 73.9528C235.84 73.5729 235.852 73.2197 236.051 73.1664C235.726 71.154 235.587 69.4415 235.261 67.4292C233.578 64.7309 231.484 62.4925 229.9 59.7675C230.585 59.9339 231.369 60.0736 231.967 59.9135C230.868 57.4083 230.208 56.5355 229.049 55.7962C228.4 54.5703 227.752 53.3443 227.003 52.1451C227.7 51.9583 228.397 51.7715 229.194 51.558C224.279 42.3769 201.441 52.3456 198.469 55.5916C198.095 54.992 197.533 54.0926 197.159 53.493C197.244 51.0207 197.817 51.567 197.066 47.569C205.742 44.8944 214.418 42.2198 223.181 39.8717C223.118 38.8388 222.955 37.8327 222.804 36.4733C221.956 35.3007 221.108 34.1282 220.36 32.9289C217.617 29.4646 208.459 34.7182 205.583 35.1388C206.039 30.4675 209.165 31.3795 210.686 33.0716C210.411 32.4453 210.049 31.4925 209.874 30.8395C213.601 34.3902 218.076 27.592 221.564 29.4568C221.29 28.8305 220.928 27.8777 220.753 27.2247C211.911 26.0944 204.829 28.3421 196.177 30.3103C194.385 30.7906 189.62 34.517 189.62 34.517C188.449 34.1308 187.052 31.7056 185.507 30.7198C181.57 27.5757 169.278 37.8679 167.06 36.3626C158.177 30.6943 150.759 34.0816 144.561 36.4423C136.857 39.5564 128.266 39.7587 120.025 41.2671C116.95 41.7411 114.228 46.3198 111.575 45.9807C107.055 45.4422 100.878 44.2978 97.9325 49.6363C97.0092 47.784 97.5704 48.6835 97.9929 47.8704C95.2381 44.7592 90.165 51.7175 86.4172 51.672C76.8303 52.1412 69.156 60.1464 62.402 67.2052C58.5695 69.6318 54.6374 72.0852 50.8049 74.5118C50.3312 73.9389 49.77 73.0395 49.1967 72.4932C49.9273 68.4481 53.1623 66.1816 55.3773 64.8882C54.1795 62.4096 55.1148 63.9087 54.2065 64.502C53.757 63.2227 53.3075 61.9434 52.9575 60.6375C52.87 60.311 52.7826 59.9845 52.7826 59.9845C54.1013 58.9312 55.5076 58.2045 56.9259 57.1246C53.5978 53.4672 50.7183 62.6372 48.4158 63.6041C42.305 66.2913 38.6893 73.9089 30.7228 76.0435C30.6353 75.717 30.5478 75.3905 30.5478 75.3905C37.1053 71.1839 41.916 63.2461 47.514 58.2467C56.2717 50.3012 70.3128 46.5389 80.727 39.1992C84.8099 38.1052 88.8928 37.0112 92.8761 35.9439C98.1511 31.7309 105.071 28.4771 112.056 29.0548C111.981 28.3752 111.818 27.369 111.643 26.716C108.24 22.3789 102.992 28.6842 100.451 27.9653C89.8467 32.2064 79.143 36.4742 68.3397 40.7687C60.9613 45.8951 53.6825 50.9949 46.2166 55.7949C42.4111 60.3139 38.5181 64.5065 34.613 69.0522C25.5752 70.774 15.2186 73.5491 8.81464 81.9138C9.0166 84.6592 8.60337 82.3203 9.68948 85.1787C7.67363 86.4188 8.69645 88.2443 6.30368 86.086C6.94026 87.6651 6.29158 86.4391 6.94026 87.6651C6.50564 88.8313 6.07101 89.9976 5.62429 91.517C5.71178 91.8435 5.79926 92.17 5.79926 92.17C8.46099 89.3572 9.55639 89.0637 12.179 84.5117C12.3177 86.2242 12.2665 84.8382 12.1185 86.2776C12.3056 86.5774 30.988 79.8218 32.5543 77.3024C32.8587 82.8199 28.4045 86.113 25.4142 84.1147C23.2988 85.3814 25.0066 87.3734 23.202 88.2069C23.6636 89.133 24.0256 90.0858 24.5747 91.3384C26.8223 97.7349 30.009 96.881 33.0262 100.972C31.3026 108.082 24.746 100.741 22.0722 103.907C21.7976 103.28 21.6105 102.981 21.4356 102.328C21.6468 101.921 21.8581 101.515 22.2564 101.408C22.4556 101.354 22.5552 101.328 22.7543 101.274C22.6669 100.948 22.5794 100.621 22.5794 100.621C22.0694 101.108 21.6589 101.568 21.0614 101.728C21.2122 103.087 20.9256 102.814 21.4989 103.361C21.0642 104.527 10.4238 109.827 10.4238 109.827C10.6621 111.513 10.9999 113.172 11.1507 114.532C12.2461 114.238 11.8357 114.698 12.3699 113.505C12.946 116.85 12.5839 115.897 13.9958 120.768C13.3983 120.928 12.9004 121.062 12.3029 121.222C12.3931 124.347 12.019 123.747 13.268 127.612C12.1093 126.873 10.9506 126.133 9.80401 125.041C10.0786 125.667 10.4406 126.62 10.6156 127.273C9.44477 126.887 8.28608 126.147 7.11528 125.761C7.20277 126.088 7.29025 126.414 7.29025 126.414C11.7166 132.577 14.4593 136.041 19.2178 138.265C20.0508 136.992 20.5366 137.212 21.9847 141.023C20.5152 140.717 19.1331 140.738 17.7632 140.405C17.7511 140.758 17.739 141.111 17.739 141.111C20.2099 146.748 22.666 149.939 25.1462 152.424C26.4259 149.632 40.7025 144.756 43.6835 149.907C42.8114 149.44 41.8519 148.648 40.8803 148.208C40.7807 148.235 40.6811 148.262 40.6811 148.262C42.0297 152.099 42.6904 152.972 44.0362 154.011C43.5774 155.884 43.3149 154.904 41.6462 154.652C42.9827 158.843 43.2693 159.116 44.5667 161.568C41.8389 160.549 39.3642 163.662 35.3269 160.544C34.9165 161.004 34.5061 161.464 34.1077 161.571C35.8909 164.242 35.6406 162.91 36.467 167.587C37.1129 166.015 36.6662 167.534 36.5517 165.115C37.3875 166.641 38.2232 168.167 38.9715 169.366C39.4266 176.243 26.3273 175.553 23.2617 172.875C23.15 173.255 22.9387 173.662 22.7396 173.715C23.2012 174.641 23.7624 175.541 24.3115 176.793C23.4906 177.713 22.6065 177.6 21.7223 177.487C21.6106 177.867 21.5985 178.22 21.3994 178.274C22.4855 181.132 23.472 184.017 24.5581 186.875C24.6577 186.849 25.9132 184.763 27.7057 184.282C26.9574 183.083 26.7582 183.137 25.835 181.284C27.9532 182.816 30.8588 187.287 32.7685 192.024C31.9961 191.531 31.0366 190.739 30.2641 190.246C30.3516 190.572 30.4391 190.899 30.4391 190.899C31.836 193.324 33.3809 194.31 34.7509 194.642C34.3768 194.043 34.1897 193.743 33.8156 193.143C35.4843 193.396 37.2405 193.975 39.0087 194.201C39.1204 193.822 39.3317 193.415 39.5308 193.362C37.1381 191.203 34.6606 191.517 34.1385 192.357C33.7644 191.757 33.4023 190.805 33.0282 190.205C32.9407 189.878 32.8532 189.552 32.8532 189.552C35.1073 189.998 37.5094 189.004 40.053 192.522C40.053 192.522 39.9385 190.103 40.4364 189.97C43.2005 189.929 45.9767 189.535 48.7408 189.494C50.0866 190.533 51.2481 194.071 52.9922 195.004C50.1973 201.701 36.4103 198.047 32.5843 194.523C32.5722 194.876 32.5601 195.229 32.5601 195.229C34.0566 197.628 35.4387 197.608 36.9352 200.006C35.3661 199.727 33.8091 199.094 32.2399 198.815C32.7648 200.774 33.2023 202.406 33.7272 204.365C38.1479 204.93 41.3159 210.38 45.3867 209.639C44.5146 209.173 43.5551 208.38 42.5835 207.941C42.3843 207.994 42.2847 208.021 42.0856 208.074C43.9237 203.383 49.2825 208.245 50.8637 208.172C50.5771 207.899 50.1908 207.652 49.9917 207.706C50.7008 207.166 51.41 206.626 52.2067 206.412C52.1192 206.086 52.0317 205.759 52.0317 205.759C48.2839 205.714 44.536 205.668 40.6011 205.323C42.9911 204.682 45.3811 204.042 47.7711 203.401C53.9452 201.747 58.9727 199 65.5209 197.945C63.1607 203.477 53.6678 198.322 52.4058 206.359C55.653 203.739 58.3054 204.078 62.379 206.136C62.4302 207.522 62.4814 208.908 62.433 210.321C63.3413 209.727 67.4298 214.231 67.587 209.64C66.0179 209.36 64.6359 209.381 63.0667 209.101C62.9793 208.775 62.8918 208.448 62.8918 208.448C63.1514 206.629 65.5414 205.989 66.5614 205.015C66.7243 206.022 66.8872 207.028 67.2371 208.334C69.7239 204.868 72.3521 205.913 75.0799 206.932C75.2521 204.786 75.3368 202.314 75.6085 200.142C75.521 199.815 75.4336 199.489 75.4336 199.489C74.4768 201.495 74.3289 202.934 73.0976 204.314C72.8351 203.334 72.5727 202.355 72.2227 201.049C70.3549 200.849 68.5745 200.977 66.8062 200.751C66.5195 200.477 66.3325 200.178 66.1333 200.231C67.2864 195.373 73.3274 197.603 76.7737 194.93C82.9692 189.771 90.0759 186.817 94.9647 182.357C96.4464 182.31 98.0276 182.237 99.4217 181.863C103.001 175.305 109.465 176.723 114.23 172.996C143.191 148.439 193.189 154.988 221.082 144.365C220.771 144.799 220.46 145.232 220.062 145.338C220.137 146.018 220.125 146.371 220.3 147.024C221.121 146.105 221.954 144.832 222.774 143.912C222.838 144.945 222.801 146.004 222.952 147.363C224.844 146.856 226.265 148.575 227.21 146.922C227.446 145.81 227.681 144.697 227.729 143.284C229.809 143.077 230.771 146.668 233.559 145.921C233.52 144.182 233.481 142.443 233.529 141.03C234.115 141.223 234.7 141.416 235.098 141.309C235.298 141.256 235.397 141.229 235.596 141.176C235.273 141.962 235.038 143.075 234.815 143.835C234.79 144.541 234.778 144.895 234.754 145.601C239.857 143.534 245.047 141.793 250.051 139.752C249.589 138.826 249.028 137.927 248.479 136.674C248.678 136.621 248.778 136.594 248.977 136.541C250.465 130.543 256.97 136.499 260.193 134.585C260.269 135.265 260.257 135.618 260.432 136.271C260.643 135.865 260.854 135.458 261.252 135.351C261.165 135.025 261.077 134.698 261.077 134.698C260.878 134.752 260.679 134.805 260.48 134.858C260.99 134.372 261.5 133.885 261.835 132.746C261.859 132.039 262.07 131.633 262.095 130.926C259.264 127.136 251.313 131.716 249.889 127.198Z" fill="#26343A"/>
</g>
<defs>
<clipPath id="clip0_13_17926">
<rect width="253.82" height="196.385" fill="white" transform="translate(0.0897827 0.501221)"/>
</clipPath>
</defs>
</svg>
